<?xml version="1.0" encoding="UTF-8"?>
<svg width="64px" height="64px" viewBox="0 0 64 64" version="1.1" xmlns="http://www.w3.org/2000/svg">
  <!-- Background (transparent, but black if needed) -->
  <rect width="64" height="64" fill="#000000"/>

  <!-- Bone -->
  <path d="M12 48h4v2h-4v2h-2v-2h-4v-2h4v-2h-4v-2h4v-2h2v2h4v2h-4z" fill="#FFFFFF"/>
  <path d="M14 50h2v2h-2z" fill="#CCCCCC"/>

  <!-- Pug body and legs -->
  <rect x="16" y="32" width="32" height="16" fill="#E8D8B8"/>
  <rect x="16" y="48" width="8" height="8" fill="#D8C8A8"/>
  <rect x="40" y="48" width="8" height="8" fill="#D8C8A8"/>
  <rect x="24" y="52" width="4" height="4" fill="#C8B898"/>
  <rect x="36" y="52" width="4" height="4" fill="#C8B898"/>

  <!-- Tail -->
  <rect x="48" y="28" width="4" height="4" fill="#D8C8A8"/>

  <!-- Collar -->
  <rect x="24" y="28" width="16" height="4" fill="#202020"/>

  <!-- Tag -->
  <circle cx="32" cy="34" r="4" fill="#FFFF80"/>
  <circle cx="32" cy="34" r="2" fill="#FFFFCC"/>

  <!-- Body shading -->
  <rect x="20" y="32" width="24" height="8" fill="#F0E0C8"/>

  <!-- Head -->
  <rect x="16" y="8" width="32" height="24" fill="#F0E8D0"/>
  <rect x="16" y="8" width="32" height="8" fill="#E8D8B8"/>

  <!-- Ears -->
  <rect x="12" y="12" width="8" height="12" fill="#A09080"/>
  <rect x="44" y="12" width="8" height="12" fill="#A09080"/>
  <rect x="16" y="16" width="4" height="4" fill="#B8A890"/>
  <rect x="44" y="16" width="4" height="4" fill="#B8A890"/>

  <!-- Face wrinkles/folds -->
  <rect x="24" y="16" width="4" height="4" fill="#D8C8A8"/>
  <rect x="36" y="16" width="4" height="4" fill="#D8C8A8"/>

  <!-- Muzzle -->
  <rect x="24" y="20" width="16" height="12" fill="#B8A898"/>
  <rect x="28" y="24" width="8" height="4" fill="#A09080"/>

  <!-- Nose -->
  <rect x="30" y="24" width="4" height="4" fill="#302020"/>

  <!-- Tongue -->
  <rect x="30" y="28" width="4" height="4" fill="#FF80C0"/>

  <!-- Eyes -->
  <circle cx="26" cy="18" r="6" fill="#FFFFFF"/>
  <circle cx="38" cy="18" r="6" fill="#FFFFFF"/>
  <circle cx="26" cy="18" r="4" fill="#302020"/>
  <circle cx="38" cy="18" r="4" fill="#302020"/>
  <circle cx="28" cy="16" r="2" fill="#FFFFFF"/>
  <circle cx="40" cy="16" r="2" fill="#FFFFFF"/>
</svg>